<?xml version="1.0" encoding="UTF-8" standalone="no"?>
<!DOCTYPE svg PUBLIC "-//W3C//DTD SVG 1.1//EN" "http://www.w3.org/Graphics/SVG/1.1/DTD/svg11.dtd">
<svg width="100%" height="100%" viewBox="0 0 24 24" version="1.1" xmlns="http://www.w3.org/2000/svg" xmlns:xlink="http://www.w3.org/1999/xlink" xml:space="preserve" xmlns:serif="http://www.serif.com/" style="fill-rule:evenodd;clip-rule:evenodd;stroke-linejoin:round;stroke-miterlimit:2;">
    <g transform="matrix(3.98765e-17,0.588558,-1,5.53393e-17,24,8.94866)">
        <rect x="9" y="16" width="6" height="6" style="fill:rgb(250,120,100);fill-rule:nonzero;"/>
    </g>
    <g transform="matrix(3.98765e-17,0.588558,-1,5.53393e-17,24,4.75031)">
        <rect x="9" y="16" width="6" height="6" style="fill:rgb(250,120,100);fill-rule:nonzero;"/>
    </g>
    <g transform="matrix(3.98765e-17,0.588558,-1,5.53393e-17,38,4.75031)">
        <rect x="9" y="16" width="6" height="6" style="fill:rgb(250,120,100);fill-rule:nonzero;"/>
    </g>
    <g transform="matrix(3.98765e-17,0.588558,-1,5.53393e-17,24,0.630404)">
        <rect x="9" y="16" width="6" height="6" style="fill:rgb(100,137,250);fill-rule:nonzero;"/>
    </g>
    <g transform="matrix(3.98765e-17,0.588558,-1,5.53393e-17,38,0.630404)">
        <rect x="9" y="16" width="6" height="6" style="fill:rgb(250,162,100);fill-rule:nonzero;"/>
    </g>
    <g transform="matrix(3.98765e-17,0.588558,-1,5.53393e-17,31,0.630404)">
        <rect x="9" y="16" width="6" height="6" style="fill:rgb(250,120,100);fill-rule:nonzero;"/>
    </g>
    <g transform="matrix(3.98765e-17,0.588558,-1,5.53393e-17,31,-3.4895)">
        <rect x="9" y="16" width="6" height="6" style="fill:rgb(100,137,250);fill-rule:nonzero;"/>
    </g>
    <g transform="matrix(3.98765e-17,0.588558,-1,5.53393e-17,24,-3.4895)">
        <rect x="9" y="16" width="6" height="6" style="fill:rgb(250,162,100);fill-rule:nonzero;"/>
    </g>
    <g transform="matrix(3.98765e-17,0.588558,-1,5.53393e-17,38,-3.4895)">
        <rect x="9" y="16" width="6" height="6" style="fill:rgb(250,162,100);fill-rule:nonzero;"/>
    </g>
    <g transform="matrix(1,0,0,0.90376,0,0)">
        <rect x="0" y="0" width="24" height="24" style="fill:none;fill-rule:nonzero;"/>
    </g>
</svg>
